<svg width="148" height="33" viewBox="0 0 148 33" fill="none" xmlns="http://www.w3.org/2000/svg">
<g clip-path="url(#clip0_5043_17329)">
<mask id="mask0_5043_17329" style="mask-type:luminance" maskUnits="userSpaceOnUse" x="0" y="0" width="35" height="33">
<path d="M0 3.1895C0 1.73325 1.18052 0.552734 2.63677 0.552734H19.1166C27.8541 0.552734 34.9372 7.63587 34.9372 16.3733C34.9372 25.1108 27.8541 32.194 19.1166 32.194H2.63677C1.18052 32.194 0 31.0134 0 29.5572V3.1895Z" fill="white"/>
</mask>
<g mask="url(#mask0_5043_17329)">
<path d="M0 3.1895C0 1.73325 1.18052 0.552734 2.63677 0.552734H19.1166C27.8541 0.552734 34.9372 7.63587 34.9372 16.3733C34.9372 25.1108 27.8541 32.194 19.1166 32.194H2.63677C1.18052 32.194 0 31.0134 0 29.5572V3.1895Z" fill="white"/>
<path d="M25.0483 33.4358L4.61328 33.7601V16.2915C4.61328 14.8353 5.7938 13.6548 7.25005 13.6548H23.2449C24.2409 13.6548 25.0483 14.4622 25.0483 15.4581V33.4358Z" fill="#6609BE" stroke="#6609BE" stroke-width="0.659193"/>
<path d="M18.4572 10.8916V13.9898H10.5469V10.8916" stroke="#6609BE" stroke-width="1.31839"/>
<path d="M18.4672 11.2008V10.5916C18.4672 9.91859 17.9216 9.37305 17.2487 9.37305H11.7654C11.0924 9.37305 10.5469 9.91859 10.5469 10.5916V11.2008" stroke="#6609BE" stroke-width="1.31839"/>
<path d="M27.1016 10.1042C27.5272 9.92679 28.1164 9.81084 28.5742 10.154C29.0962 10.5455 29.0372 11.1878 28.8809 11.6178C28.7117 12.0828 28.3515 12.5953 27.8213 13.1257L24.7188 16.2282V26.9098L24.3545 27.0925L23.6943 27.4216L22.9531 27.7926L22.7588 26.986L21.0352 19.8063L16.8086 23.5046V25.4567L15.9561 26.3092L15.0234 27.2409L14.8369 25.9362L14.5771 24.1178L12.7598 23.8591L11.4551 23.6725L12.3867 22.7399L13.0459 22.0807L13.2393 21.8883H15.1904L18.9053 17.6423L12.3574 15.9342L11.5703 15.7282L11.9336 15.0007L12.2637 14.3425L12.4453 13.9782H22.4873L25.5957 11.1803C26.1214 10.6592 26.6352 10.2985 27.1016 10.1042Z" fill="white" stroke="#6609BE" stroke-width="1.31839"/>
</g>
<path d="M44.8305 23.3733V8.60742H51.2853C52.8885 8.60742 54.2948 8.9168 55.5042 9.53557C56.7136 10.1543 57.6558 11.0121 58.3308 12.109C59.0058 13.2059 59.3433 14.4997 59.3433 15.9903C59.3433 17.4669 59.0058 18.7607 58.3308 19.8717C57.6558 20.9686 56.7136 21.8264 55.5042 22.4452C54.2948 23.0639 52.8885 23.3733 51.2853 23.3733H44.8305ZM47.5727 21.0529H51.1588C52.2697 21.0529 53.226 20.842 54.0276 20.4201C54.8432 19.9982 55.469 19.4076 55.9049 18.6482C56.355 17.8888 56.58 17.0029 56.58 15.9903C56.58 14.9638 56.355 14.0778 55.9049 13.3325C55.469 12.5731 54.8432 11.9824 54.0276 11.5606C53.226 11.1387 52.2697 10.9277 51.1588 10.9277H47.5727V21.0529ZM62.6798 23.3733V8.60742H65.422V23.3733H62.6798ZM76.7356 23.5842C75.5825 23.5842 74.5207 23.4014 73.5504 23.0358C72.5941 22.6561 71.7574 22.1287 71.0402 21.4537C70.323 20.7647 69.7675 19.956 69.3737 19.0279C68.98 18.0998 68.7831 17.0872 68.7831 15.9903C68.7831 14.8934 68.98 13.8809 69.3737 12.9528C69.7675 12.0246 70.323 11.2231 71.0402 10.5481C71.7714 9.85901 72.6222 9.33166 73.5926 8.96602C74.5629 8.58633 75.6246 8.39648 76.7778 8.39648C78.0294 8.39648 79.1544 8.60039 80.1529 9.00821C81.1654 9.41603 82.0162 10.0137 82.7053 10.8012L80.9755 12.4887C80.399 11.9121 79.7732 11.4903 79.0982 11.2231C78.4372 10.9418 77.7059 10.8012 76.9044 10.8012C76.1309 10.8012 75.4137 10.9277 74.7528 11.1809C74.0918 11.434 73.5223 11.7926 73.0441 12.2567C72.566 12.7207 72.1933 13.2692 71.9261 13.902C71.673 14.5348 71.5464 15.231 71.5464 15.9903C71.5464 16.7357 71.673 17.4247 71.9261 18.0576C72.1933 18.6904 72.566 19.2459 73.0441 19.724C73.5223 20.1881 74.0848 20.5467 74.7317 20.7998C75.3785 21.0529 76.0957 21.1795 76.8833 21.1795C77.6145 21.1795 78.3177 21.067 78.9927 20.842C79.6818 20.6029 80.3357 20.2092 80.9544 19.6607L82.5154 21.7069C81.742 22.3256 80.8419 22.7967 79.8154 23.1202C78.8028 23.4296 77.7762 23.5842 76.7356 23.5842ZM79.9208 21.3483V15.8216H82.5154V21.7069L79.9208 21.3483ZM86.5541 23.3733V8.60742H89.2964V23.3733H86.5541ZM98.2896 23.5842C97.1364 23.5842 96.0325 23.4225 94.9778 23.0991C93.9231 22.7616 93.0863 22.3327 92.4676 21.8123L93.4168 19.6818C94.0074 20.1459 94.7387 20.5326 95.6106 20.842C96.4825 21.1514 97.3755 21.3061 98.2896 21.3061C99.063 21.3061 99.6888 21.2217 100.167 21.0529C100.645 20.8842 100.997 20.6592 101.222 20.3779C101.447 20.0826 101.559 19.7521 101.559 19.3865C101.559 18.9365 101.397 18.5779 101.074 18.3107C100.751 18.0294 100.329 17.8115 99.8083 17.6568C99.3021 17.488 98.7325 17.3333 98.0997 17.1927C97.4809 17.0521 96.8552 16.8904 96.2223 16.7075C95.6036 16.5107 95.034 16.2646 94.5137 15.9692C94.0074 15.6599 93.5926 15.252 93.2691 14.7458C92.9457 14.2395 92.784 13.5926 92.784 12.8051C92.784 12.0035 92.9949 11.2723 93.4168 10.6113C93.8528 9.93636 94.5067 9.40197 95.3786 9.00821C96.2645 8.60039 97.3825 8.39648 98.7325 8.39648C99.6185 8.39648 100.497 8.50898 101.369 8.73399C102.241 8.95899 103.001 9.28244 103.647 9.70432L102.783 11.8348C102.122 11.441 101.44 11.1527 100.736 10.9699C100.033 10.7731 99.3583 10.6746 98.7114 10.6746C97.9521 10.6746 97.3333 10.766 96.8552 10.9488C96.3911 11.1317 96.0465 11.3707 95.8215 11.666C95.6106 11.9614 95.5051 12.2989 95.5051 12.6786C95.5051 13.1286 95.6598 13.4942 95.9692 13.7755C96.2926 14.0426 96.7075 14.2536 97.2138 14.4083C97.7341 14.563 98.3107 14.7177 98.9435 14.8724C99.5763 15.013 100.202 15.1747 100.821 15.3575C101.454 15.5403 102.023 15.7794 102.529 16.0747C103.05 16.37 103.465 16.7708 103.774 17.2771C104.097 17.7833 104.259 18.4232 104.259 19.1967C104.259 19.9842 104.041 20.7154 103.605 21.3904C103.183 22.0514 102.529 22.5858 101.644 22.9936C100.758 23.3874 99.6396 23.5842 98.2896 23.5842ZM110.19 23.3733V10.9277H105.296V8.60742H117.826V10.9277H112.932V23.3733H110.19ZM117.476 23.3733L124.12 8.60742H126.82L133.486 23.3733H130.617L124.901 10.0629H125.998L120.302 23.3733H117.476ZM120.534 19.956L121.273 17.8044H129.246L129.985 19.956H120.534ZM138.528 23.3733V17.5302L139.14 19.2177L132.727 8.60742H135.66L140.807 17.1505H139.161L144.35 8.60742H147.05L140.638 19.2177L141.271 17.5302V23.3733H138.528Z" fill="white"/>
</g>
<defs>
<clipPath id="clip0_5043_17329">
<rect width="148" height="32" fill="white" transform="translate(0 0.552734)"/>
</clipPath>
</defs>
</svg>
