<svg width="167" height="128" viewBox="0 0 167 128" fill="none" xmlns="http://www.w3.org/2000/svg">
<path d="M121.129 1.06934L88.7422 20.1543L88.2959 20.417L88.5742 20.8545C94.9862 30.9113 100.254 41.4234 104.376 52.3926L104.375 52.3936C108.372 63.3349 110.374 75.5413 110.374 89.0176V127H166.5V89.3613C166.5 78.7492 164.42 67.9143 160.267 56.8604C156.117 45.8172 150.643 35.4067 143.844 25.6299C137.046 15.8548 129.665 7.6811 121.7 1.11426L121.431 0.891602L121.129 1.06934ZM34.1328 1.06934L1.74609 20.1543L1.2998 20.417L1.57812 20.8545C7.99014 30.9113 13.2582 41.4234 17.3799 52.3926L17.3789 52.3936C21.3756 63.3349 23.3779 75.5413 23.3779 89.0176V127H79.5039V89.3613C79.5039 78.7492 77.4237 67.9143 73.2705 56.8604C69.1214 45.8172 63.6469 35.4067 56.8477 25.6299C50.0497 15.8549 42.6695 7.68106 34.7051 1.11426L34.4346 0.891602L34.1328 1.06934Z" fill="#EEEAFB" stroke="#6609BE"/>
</svg>
